<svg xmlns="http://www.w3.org/2000/svg" width="98.86" height="98.915" viewBox="0 0 98.86 98.915">
  <path id="yoga-position" d="M97.6,96.012h-12c4.454-3.972,4.068-11.825-.475-15.594.961.047,2.057-.281,2.057-1.449a7.247,7.247,0,0,0-2.235-5.5,8.819,8.819,0,0,0-2.933-1.783,4.2,4.2,0,1,0-7.568-.849H72.073c.019-4.58.47-9.435-.694-13.906A22.834,22.834,0,0,0,54.8,40.672V37.22a14.426,14.426,0,0,0,2-25.96,7.935,7.935,0,1,0-14.407,0,14.427,14.427,0,0,0,1.732,25.857v3.607A21.954,21.954,0,0,0,36.45,44.15h0A23.131,23.131,0,0,0,33.4,46.719c-1.288,1.292.721,3.382,2.052,2.046.434-.436.891-.851,1.363-1.246A14.567,14.567,0,0,0,61.8,47.253,19.618,19.618,0,0,1,69.21,62.719l-.034,8.121H67.353a1.45,1.45,0,0,0,0,2.9h7.671v4.288a44.433,44.433,0,0,0-5.475.8c-.808.167-3.531.762-3.553.784s-3.482-1.51-3.324-6.859c0-.014,0-.028,0-.043V59.631a1.45,1.45,0,0,0-2.9,0v13.06a10.374,10.374,0,0,0,2.884,8.025A78.138,78.138,0,0,0,49.7,86.535a76.972,76.972,0,0,0-13.58-6.029,10.422,10.422,0,0,0,2.758-7.9V59.549a1.45,1.45,0,0,0-2.9,0V72.63c0,.014,0,.028,0,.043.144,4.886-2.736,6.563-3.261,6.827A46.885,46.885,0,0,0,24.06,78v-4.26h7.671a1.45,1.45,0,0,0,0-2.9H29.623c-.008-.639-.02-1.279-.032-1.9-.1-4.958-.189-9.641,1.716-14.1A1.45,1.45,0,0,0,28.642,53.7c-2.149,5.031-2.047,10.249-1.948,15.295.012.608.024,1.229.032,1.847H24.633a4.195,4.195,0,1,0-7.568.849,8.82,8.82,0,0,0-2.933,1.783,7.247,7.247,0,0,0-2.235,5.5c0,1.255,1.2,1.493,2.193,1.449-4.4,4.152-5.185,11.242-.53,15.594H1.591a1.449,1.449,0,1,0,0,2.9l64.322-.019c1.741,0,1.443-2.879-.235-2.879,0,0-20.088-.091-25.16-.074,10.988-8.15,20.309-11.828,26.349-13.483a38.373,38.373,0,0,1,10.975-1.619c4.286.187,7.82,2.8,8.017,7.378a7.673,7.673,0,0,1-6.925,7.8H74.318a1.451,1.451,0,0,0-.161,2.892c.242.022,23.446.006,23.446.006A1.449,1.449,0,0,0,97.6,96.012ZM44.561,7.934a5.036,5.036,0,1,1,9.6,2.133,14.374,14.374,0,0,0-9.121,0A5.028,5.028,0,0,1,44.561,7.934ZM49.6,12.223a11.508,11.508,0,0,1,8.645,3.91c-2.8,5.253-6.893,8.182-12.175,8.709a18.694,18.694,0,0,1-7.788-.935,1.462,1.462,0,0,0-.216-.065c0-.028,0-.055,0-.082A11.55,11.55,0,0,1,49.6,12.223ZM38.535,27.029a22.147,22.147,0,0,0,5.83.795c.6,0,1.226-.026,1.867-.086,4.154-.387,9.731-2.293,13.8-8.9a11.535,11.535,0,1,1-21.494,8.188ZM49.324,51.561A11.584,11.584,0,0,1,39.181,45.82a20.233,20.233,0,0,1,6.65-2.493A1.449,1.449,0,0,0,47.024,41.9v-3.94a14.3,14.3,0,0,0,4.882.047v3.829a1.449,1.449,0,0,0,1.178,1.423A20.489,20.489,0,0,1,59.4,45.6,11.48,11.48,0,0,1,49.324,51.561Zm34.79,25.96H77.921V73.739a8.638,8.638,0,0,1,5.041,1.84A4.038,4.038,0,0,1,84.114,77.52Zm-5.683-9.3a1.3,1.3,0,1,1-1.3,1.3A1.3,1.3,0,0,1,78.431,68.221Zm-57.779,0a1.3,1.3,0,1,1-1.3,1.3A1.3,1.3,0,0,1,20.653,68.221Zm-4.538,7.365a8.581,8.581,0,0,1,5.048-1.85V77.52H14.97A4.034,4.034,0,0,1,16.115,75.585Zm-1.285,8.2a8.6,8.6,0,0,1,6.5-2.94c.992-.033,10.916-.324,25.44,7.394-.438.265-.878.536-1.323.815-1.493-.1-15.743-.82-19.611,6.913-2.039-.007-4.078-.022-6.1-.051C13.994,95.352,11.439,88.162,14.83,83.785Zm21.122,12.17c-2.194.009-4.412.016-6.64.017,1.929-2.165,5.375-3.167,8.2-3.629a34.3,34.3,0,0,1,3.567-.383q-2.317,1.627-4.731,3.515A1.438,1.438,0,0,0,35.951,95.955Z" transform="translate(-0.142)" fill="#fff"/>
</svg>
