<svg id="lotus" xmlns="http://www.w3.org/2000/svg" width="347.29" height="283.644" viewBox="0 0 347.29 283.644">
  <path id="Caminho_5" data-name="Caminho 5" d="M108.237,267.8H48.978v10.174H318.269V267.8H259.037A127.22,127.22,0,0,0,336.255,150.95V120.272h-30.68a127.142,127.142,0,0,0-21.131,1.759c-3.01-13.036-5.781-18.537-18.211-48.546-30.15,12.49-35.9,14.387-47.192,21.443-7.74-10.845-12.376-14.846-35.4-37.874-23.386,23.388-27.771,27.18-35.4,37.874-11.332-7.082-17.162-9.006-47.192-21.443C88.6,103.514,85.84,109,82.833,122.032A127.2,127.2,0,0,0,61.7,120.272H31.019v30.68A127.22,127.22,0,0,0,108.237,267.8ZM326.083,130.447v20.505A116.985,116.985,0,0,1,209.23,267.8H188.725V247.3A116.985,116.985,0,0,1,305.578,130.447ZM260.728,86.778c8.283,20,11.065,25.768,13.757,37.344a126.328,126.328,0,0,0-35.4,14.978,125.857,125.857,0,0,0-14.475-35.656c10.114-6.3,16.205-8.421,36.114-16.666Zm-91.589-.835,14.5-14.5,14.5,14.5a116.1,116.1,0,0,1,31.888,59.3,127.486,127.486,0,0,0-46.387,66.423,127.486,127.486,0,0,0-46.387-66.423,116.11,116.11,0,0,1,31.888-59.3Zm-62.592.835c19.933,8.256,26.03,10.389,36.114,16.663A125.886,125.886,0,0,0,128.186,139.1a126.365,126.365,0,0,0-35.4-14.976c2.692-11.574,5.469-17.331,13.757-37.344ZM41.194,130.447H61.7A116.985,116.985,0,0,1,178.55,247.3v20.5H158.044A116.985,116.985,0,0,1,41.193,150.951Zm0,0" transform="translate(-9.979 -18.355)" fill="#5b8467"/>
  <path id="Caminho_6" data-name="Caminho 6" d="M435.978,195.484H425.8a100.206,100.206,0,0,1-32.089,73.291l6.913,7.467a110.42,110.42,0,0,0,35.351-80.758Zm0,0" transform="translate(-126.657 -62.887)" fill="#5b8467"/>
  <path id="Caminho_7" data-name="Caminho 7" d="M171.516,59.4A16.617,16.617,0,1,0,154.9,42.782,16.634,16.634,0,0,0,171.516,59.4Zm0-23.06a6.444,6.444,0,1,1-6.444,6.444A6.451,6.451,0,0,1,171.516,36.339Zm0,0" transform="translate(-49.83 -8.417)" fill="#5b8467"/>
  <path id="Caminho_8" data-name="Caminho 8" d="M324.761,59.4a16.617,16.617,0,1,0-16.616-16.616A16.636,16.636,0,0,0,324.761,59.4Zm0-23.06a6.444,6.444,0,1,1-6.441,6.444A6.451,6.451,0,0,1,324.761,36.339Zm0,0" transform="translate(-99.13 -8.417)" fill="#5b8467"/>
  <path id="Caminho_9" data-name="Caminho 9" d="M248.14,33.234a16.617,16.617,0,1,0-16.616-16.616A16.636,16.636,0,0,0,248.14,33.234Zm0-23.06a6.443,6.443,0,1,1-6.444,6.444A6.451,6.451,0,0,1,248.14,10.175Zm0,0" transform="translate(-74.481)" fill="#5b8467"/>
  <path id="Caminho_10" data-name="Caminho 10" d="M328.541,349.542c-10.013-3.121-24.119-5.853-41.927-8.121l-1.288,10.092c39.789,5.069,49.331,11.041,51.384,12.856-2.011,1.781-11.213,7.551-49.058,12.559-64.16,8.489-163.768,8.5-228.015,0C21.8,371.921,12.591,366.15,10.58,364.369c2.053-1.815,11.6-7.79,51.408-12.859L60.7,341.418c-17.816,2.268-31.928,5-41.943,8.121C10.023,352.261,0,356.4,0,364.369c0,6.685,6.107,15.23,53.74,22.018,66.352,9.454,173.455,9.454,239.811,0,47.632-6.788,53.74-15.331,53.74-22.018,0-7.965-10.021-12.106-18.749-14.827Zm0,0" transform="translate(0 -109.834)" fill="#5b8467"/>
  <path id="Caminho_11" data-name="Caminho 11" d="M258.695,184.021H248.52V163.674h10.175Zm0-27.129H248.52V146.717h10.175Zm0-16.958H248.52V129.762h10.175Zm0,0" transform="translate(-79.949 -41.744)" fill="#5b8467"/>
</svg>
