<svg xmlns="http://www.w3.org/2000/svg" width="273.509" height="273.509" viewBox="0 0 273.509 273.509">
  <g id="mandala" transform="translate(-0.002 -0.001)">
    <path id="Caminho_12" data-name="Caminho 12" d="M229.619,167.442a4.074,4.074,0,0,0-3.075,7.545,39.628,39.628,0,1,1-15.472-2.9,4.074,4.074,0,0,0-.112-8.148,47.682,47.682,0,1,0,18.659,3.505Z" transform="translate(-74.871 -74.884)" fill="#272737"/>
    <path id="Caminho_13" data-name="Caminho 13" d="M193.909,225.331a31.423,31.423,0,1,0,31.423-31.423A31.458,31.458,0,0,0,193.909,225.331Zm54.7,0a23.275,23.275,0,1,1-23.275-23.275A23.3,23.3,0,0,1,248.606,225.331Z" transform="translate(-88.576 -88.575)" fill="#272737"/>
    <path id="Caminho_14" data-name="Caminho 14" d="M272.455,93.347l1.011-8.855a6.7,6.7,0,0,0-2.494-6.032L264.005,72.9a54.179,54.179,0,0,0-5.064-3.581,4.074,4.074,0,0,0-4.316,6.911,46.009,46.009,0,0,1,4.3,3.041l6.357,5.069-.923,8.079a46.045,46.045,0,0,1-17.2,30.81,110.661,110.661,0,0,0-21.828-53.669,46.1,46.1,0,0,1,14.288.664,4.074,4.074,0,1,0,1.648-7.98,54.343,54.343,0,0,0-21.975.028q-3.263-3.612-6.831-6.928a54.211,54.211,0,0,0-10.449-45.24L196.47,3.132a6.7,6.7,0,0,0-6.03-2.5l-8.855,1a54.28,54.28,0,0,0-39.095,24.045q-2.849-.145-5.735-.146c-1.361,0-2.714.033-4.063.082A54.214,54.214,0,0,0,93.348,1.057L84.494.046a6.7,6.7,0,0,0-6.033,2.493L72.9,9.506a54.278,54.278,0,0,0-10.628,44.71q-3.61,3.261-6.925,6.829A53.6,53.6,0,0,0,34.921,60.5a4.074,4.074,0,1,0,1.325,8.04,45.6,45.6,0,0,1,12.942-.29A110.715,110.715,0,0,0,26.564,121.6,46.1,46.1,0,0,1,9.725,91.014l-.91-8.08,6.365-5.059a46.085,46.085,0,0,1,5.492-3.748,4.074,4.074,0,1,0-4.1-7.044A54.251,54.251,0,0,0,10.109,71.5L3.132,77.041a6.7,6.7,0,0,0-2.5,6.03l1,8.855a54.281,54.281,0,0,0,24.045,39.1q-.145,2.849-.146,5.735c0,1.361.033,2.714.082,4.064A54.211,54.211,0,0,0,1.057,180.165L.046,189.019a6.7,6.7,0,0,0,2.493,6.032l6.968,5.556A54.271,54.271,0,0,0,43.27,212.366a53.658,53.658,0,0,0,10.946-1.132q3.262,3.613,6.832,6.929A54.213,54.213,0,0,0,71.5,263.4l5.546,6.976a6.7,6.7,0,0,0,5.26,2.546,6.8,6.8,0,0,0,.769-.043l8.855-1a54.277,54.277,0,0,0,39.095-24.045q2.849.145,5.735.146c1.361,0,2.714-.033,4.063-.082a54.213,54.213,0,0,0,39.345,24.551l8.854,1.011a6.851,6.851,0,0,0,.779.045,6.7,6.7,0,0,0,5.254-2.538l5.556-6.967a54.279,54.279,0,0,0,10.628-44.71q3.613-3.263,6.929-6.832a54.107,54.107,0,0,0,45.24-10.448l6.975-5.545a6.7,6.7,0,0,0,2.5-6.03l-1-8.855a54.281,54.281,0,0,0-24.045-39.1q.145-2.849.146-5.735c0-1.361-.033-2.713-.082-4.063a54.211,54.211,0,0,0,24.551-39.345ZM184,228.355a62.576,62.576,0,0,0,3.53-22.168,54.162,54.162,0,0,0,9.867.915q1.3,0,2.6-.062a6.514,6.514,0,0,0,6.2-6.12,54.162,54.162,0,0,0-.607-11.944c.736.026,1.47.047,2.207.047a62.539,62.539,0,0,0,19.553-3.132A103.818,103.818,0,0,1,184,228.355ZM74.564,198.137a46.3,46.3,0,0,1,1.242-11.374,61.41,61.41,0,0,0,7.812-1.772q1.832,2.017,3.813,3.889a61.6,61.6,0,0,0-2.027,8.28,46.314,46.314,0,0,1-10.84.977Zm.81-123.573A46.3,46.3,0,0,1,86.741,75.8a61.55,61.55,0,0,0,1.78,7.813Q86.5,85.45,84.632,87.431a61.511,61.511,0,0,0-8.28-2.027,46.332,46.332,0,0,1-.977-10.841ZM228.355,89.51a62.588,62.588,0,0,0-22.165-3.53,54.318,54.318,0,0,0,.85-12.47,6.514,6.514,0,0,0-6.12-6.2,54.2,54.2,0,0,0-11.938.6,62.562,62.562,0,0,0-3.092-21.749A103.806,103.806,0,0,1,228.355,89.51ZM198.137,198.948a46.083,46.083,0,0,1-11.367-1.24,61.445,61.445,0,0,0-1.78-7.814q2.025-1.84,3.9-3.83a61.839,61.839,0,0,0,8.263,2.038A46.251,46.251,0,0,1,198.137,198.948Zm-61.381,1.459a63.65,63.65,0,1,1,63.65-63.651A63.722,63.722,0,0,1,136.755,200.406ZM188.107,76.351a46.24,46.24,0,0,1,10.84-.977A46.219,46.219,0,0,1,197.7,86.742a61.5,61.5,0,0,0-7.81,1.779q-1.832-2.017-3.813-3.889a61.538,61.538,0,0,0,2.027-8.281Zm6.5,102.879a71.451,71.451,0,0,0,12.88-30.108,54.25,54.25,0,0,1,22.079,27.208A54.277,54.277,0,0,1,194.6,179.231Zm13.864-38.991q.083-1.731.086-3.484,0-1-.029-2a61.53,61.53,0,0,0,7.254-4.4,46.32,46.32,0,0,1,8.356,6.974,46.294,46.294,0,0,1-8.915,7.161A61.415,61.415,0,0,0,208.468,140.24Zm-.739-14.377a71.409,71.409,0,0,0-12.253-30.376,54.272,54.272,0,0,1,34.888,3.625,54.268,54.268,0,0,1-22.635,26.75ZM179.238,78.912a71.451,71.451,0,0,0-30.115-12.885,54.249,54.249,0,0,1,27.208-22.079,54.286,54.286,0,0,1,2.907,34.965Zm-39-13.869q-1.732-.083-3.484-.086c-.668,0-1.333.011-2,.029a61.476,61.476,0,0,0-4.4-7.251,46.243,46.243,0,0,1,6.972-8.359,46.275,46.275,0,0,1,7.161,8.915A61.5,61.5,0,0,0,140.24,65.043Zm-14.367.738A71.4,71.4,0,0,0,95.479,78.041a54.281,54.281,0,0,1,3.635-34.895A54.29,54.29,0,0,1,125.872,65.781ZM78.914,94.271A71.452,71.452,0,0,0,66.024,124.4,54.268,54.268,0,0,1,43.947,97.181a54.286,54.286,0,0,1,34.967-2.91Zm-13.871,39q-.083,1.732-.086,3.484,0,1,.029,2a61.531,61.531,0,0,0-7.254,4.4,46.275,46.275,0,0,1-8.356-6.974,46.3,46.3,0,0,1,8.915-7.161,61.518,61.518,0,0,0,6.752,4.249Zm.739,14.378A71.4,71.4,0,0,0,78.04,178.03,54.278,54.278,0,0,1,43.147,174.4,54.263,54.263,0,0,1,65.782,147.65ZM94.274,194.6A71.449,71.449,0,0,0,124.4,207.487a54.267,54.267,0,0,1-27.222,22.077A54.282,54.282,0,0,1,94.274,194.6Zm39,13.869q1.731.083,3.484.086c.668,0,1.333-.011,2-.029a61.534,61.534,0,0,0,4.4,7.254,46.313,46.313,0,0,1-6.975,8.356,46.306,46.306,0,0,1-7.16-8.914,61.532,61.532,0,0,0,4.251-6.753Zm14.367-.738a71.4,71.4,0,0,0,30.4-12.263,54.288,54.288,0,0,1-3.638,34.9,54.277,54.277,0,0,1-26.758-22.634Zm87.307-39.587a62.586,62.586,0,0,0-13.19-18.2,54.371,54.371,0,0,0,9.421-8.216,6.514,6.514,0,0,0,.056-8.712A54.142,54.142,0,0,0,222.365,125a62.589,62.589,0,0,0,13.211-17.594,103.14,103.14,0,0,1-.63,60.733ZM182.5,9.723l8.08-.91,5.059,6.365a46.041,46.041,0,0,1,9.618,34,110.72,110.72,0,0,0-53.343-22.616A46.11,46.11,0,0,1,182.5,9.723ZM168.143,38.566a62.6,62.6,0,0,0-18.2,13.194,54.23,54.23,0,0,0-8.213-9.426l-.292-.265a6.074,6.074,0,0,0-8.124-.054l-.3.262A54.225,54.225,0,0,0,125,51.141a62.571,62.571,0,0,0-17.591-13.205,103.138,103.138,0,0,1,60.734.63ZM79.275,14.586l5.069-6.357,8.079.923a46.035,46.035,0,0,1,30.8,17.2A110.66,110.66,0,0,0,69.558,48.18a46.109,46.109,0,0,1,9.717-33.595ZM89.51,45.157a62.589,62.589,0,0,0-3.53,22.166,54.169,54.169,0,0,0-12.47-.851,6.514,6.514,0,0,0-6.2,6.12,54.3,54.3,0,0,0,.6,11.937,62.57,62.57,0,0,0-21.749,3.091A103.8,103.8,0,0,1,89.51,45.157ZM38.566,105.368a62.582,62.582,0,0,0,13.189,18.2,54.212,54.212,0,0,0-9.419,8.216l-.479.527a5.722,5.722,0,0,0-.05,7.653l.472.532a54.138,54.138,0,0,0,8.867,8.016A62.588,62.588,0,0,0,37.936,166.1a103.14,103.14,0,0,1,.63-60.733ZM14.586,194.237l-6.357-5.07.923-8.078a46.048,46.048,0,0,1,17.2-30.813A110.662,110.662,0,0,0,48.18,203.953a46.107,46.107,0,0,1-33.594-9.716Zm30.573-10.231a62.546,62.546,0,0,0,20.784,3.546c.463,0,.925-.018,1.388-.028A54.191,54.191,0,0,0,66.472,200a6.514,6.514,0,0,0,6.12,6.2q1.652.1,3.3.1a54.2,54.2,0,0,0,8.635-.7,62.562,62.562,0,0,0,3.092,21.749,103.811,103.811,0,0,1-42.463-43.351Zm45.855,79.782-8.08.91-5.059-6.365a46.035,46.035,0,0,1-9.614-34,110.717,110.717,0,0,0,53.334,22.613,46.1,46.1,0,0,1-30.581,16.84Zm14.354-28.842a62.6,62.6,0,0,0,18.2-13.191,54.351,54.351,0,0,0,8.215,9.422,6.515,6.515,0,0,0,8.712.057,54.141,54.141,0,0,0,8.012-8.871,62.578,62.578,0,0,0,17.6,13.212,103.136,103.136,0,0,1-60.733-.63Zm88.868,23.979-5.069,6.357-8.079-.923a46.041,46.041,0,0,1-30.8-17.2,110.661,110.661,0,0,0,53.664-21.827A46.1,46.1,0,0,1,194.236,258.925ZM263.788,182.5l.91,8.08-6.365,5.059a46.047,46.047,0,0,1-34,9.618,110.715,110.715,0,0,0,22.616-53.343A46.107,46.107,0,0,1,263.788,182.5Z" transform="translate(0 0)" fill="#272737"/>
  </g>
</svg>
