<svg xmlns="http://www.w3.org/2000/svg" width="512" height="512.161" viewBox="0 0 512 512.161">
  <g id="meditacao" transform="translate(-0.081 0)">
    <path id="Caminho_1" data-name="Caminho 1" d="M504.081,496.161H438.895c30.626-28.9,21.166-78.84-16.244-95.47-.759-.338,5.129,1.425-89.594-26.274.022-10.418.105-19.468.25-27.376h57.654c32.681,0,50.13-37.874,30.178-62.776l-15.21-19.02a8,8,0,0,0-12.5,9.994l15.215,19.026c11.685,14.583,1.452,36.777-17.687,36.777-131.927,0-122.758.717-125.171-1.675-2.44-2.461-1.709,2.023-1.709-77.545,12.027,6.168,15.975,32.525,16,45.84a8,8,0,0,0,8,8h70.48a8.006,8.006,0,0,0,6.292-12.941l-38.479-49.008a8,8,0,0,0-12.586,9.878l11.9,15.155a200.274,200.274,0,0,0-4.522,20.916H295.735c-2.106-27.239-12.719-56.688-39.654-55.187-26.943-1.5-37.543,27.9-39.653,55.187H191a200.33,200.33,0,0,0-4.522-20.916l11.9-15.155a8,8,0,0,0-12.586-9.878L147.31,292.721a8.006,8.006,0,0,0,6.292,12.941h70.48a8.007,8.007,0,0,0,8-7.993c.025-13.415,4-39.692,16-45.847,0,79.466.713,75.1-1.664,77.5-2.477,2.457,7.295,1.72-125.216,1.72-19.126,0-29.381-22.184-17.682-36.783l64.875-81.126a95.156,95.156,0,0,1,55.637-17.82c65.067,0,88.846-4.091,119.4,17.389l9.12,11.415a8,8,0,0,0,12.5-9.988c-10.431-13.055-10.136-12.883-11.4-13.789a111.585,111.585,0,0,0-60.392-20.914c6.625-7.243,8.387-13.133,15.074-28.3a128.153,128.153,0,0,0,10.916-51.586c0-18.729-9.7-36.8-27.583-48.063,0-16.485,1.825-28.774-10.425-41.071C258.991-11.76,220.49,3.755,220.49,35.592V51.475c-16.645,10.483-27.583,27.92-27.583,48.063a127.621,127.621,0,0,0,10.921,51.6c7.223,16.385,8.762,21.4,15.082,28.3a111.072,111.072,0,0,0-60.851,21.424c-1.3.964,2.876-4.023-67.032,83.4-20.372,25.426-1.894,62.782,30.173,62.782h57.654c.145,7.908.227,16.958.25,27.376-94.866,27.741-88.832,25.936-89.589,26.271-37.509,16.646-46.779,66.681-16.208,95.473H8.081a8,8,0,0,0,0,16h496a8,8,0,0,0,0-16ZM338.3,284.808l3.811,4.854H337.38C337.668,288,337.973,286.391,338.3,284.808Zm-164.431,0c.324,1.583.628,3.2.916,4.854h-4.727ZM236.491,35.592c0-17.372,21.134-26.131,33.441-13.874,6.721,6.748,5.738,13.654,5.738,22.515a68.683,68.683,0,0,0-39.18,0V35.592Zm-14.047,34.4c23.885-21.712,64.863-14.243,77.453,13.9-21.742-4.469-35.454,4.358-46.844,11.7-13.184,8.506-22.923,14.779-44.141,4.218,0-11.9,5.124-22.182,13.532-29.825Zm-12.006,47.874c21.372,7.744,34.614,1.934,51.287-8.821,11.78-7.6,22.08-14.226,41.505-7.7-.427,26.064-9.253,42.691-16.644,59.458-10.822,24.609-50.2,24.584-61.013-.006-7.4-16.795-12.368-26.428-15.135-42.933ZM191.78,472.034c-9.773,4.887-21.317,8.925-25.389,23.967H153.735V462.523ZM183.758,496c2.8-4.161,2.967-3.551,34.521-19.328.173-.087.558-.3.826-.479,15.014-10.009,17.12-12.469,24.829-12.469a18.393,18.393,0,0,1,17.481,12.606l.867,2.608a8,8,0,0,0,9.532,5.237l86.612-21.653V496H183.758ZM70.981,453.841A42.169,42.169,0,0,1,95.54,415.523l92.717-27.112h86.9a8,8,0,0,0,0-16H195.1c-.027-9.558-.108-17.947-.243-25.37H242.29a21.686,21.686,0,0,0,13.786-4.92,21.69,21.69,0,0,0,13.794,4.92H317.3c-.2,10.986-.251,22.421-.251,33.41a8,8,0,0,0,1.375,4.448c2.325,3.433-3.6.858,98.191,30.624A42.163,42.163,0,0,1,399.02,496h-24.6V458.524l7.733-1.933a8,8,0,0,0-3.881-15.523L274.814,466.933c-9.512-19.357-33.71-24.638-50.655-13.336l-10.953,7.3-79.325-19.831A8,8,0,0,0,130,456.591l7.733,1.933V496H113.14a42.208,42.208,0,0,1-42.159-42.161Z" fill="#7a8f81"/>
    <path id="Caminho_2" data-name="Caminho 2" d="M373.783,250.66a8,8,0,1,0,12.476-10.017L385,239.073a8,8,0,1,0-12.476,10.017Z" fill="#7a8f81"/>
  </g>
</svg>
