<svg xmlns="http://www.w3.org/2000/svg" width="512" height="475.51" viewBox="0 0 512 475.51">
  <g id="pilates" transform="translate(0 -18.245)">
    <path id="Caminho_3" data-name="Caminho 3" d="M485.309,440.373H349.5A222.219,222.219,0,0,0,460.539,324.53a7.5,7.5,0,0,0-13.852-5.754A205.813,205.813,0,0,1,427.228,354.9c-74.153,60.847-268.375,60.908-342.539-.063a203.161,203.161,0,0,1-34.32-97.163c75.277,76.214,336.057,76.089,411.238.019a206.4,206.4,0,0,1-4.568,28.875,7.5,7.5,0,1,0,14.61,3.394,222.531,222.531,0,0,0,5.74-50.3A221.332,221.332,0,0,0,95.866,86.789a7.5,7.5,0,0,0,10.848,10.36q6.83-7.152,14.233-13.561c64.409,39.564,205.516,39.591,270.013.055a207.8,207.8,0,0,1,45.667,56.274c-6.494,14.937-26.961,29.452-56.9,40.2-70.446,25.28-177.171,25.226-247.467,0-30.007-10.768-50.5-25.327-56.94-40.3q4.706-8.49,10.239-16.578a7.5,7.5,0,0,0-12.378-8.472A221.457,221.457,0,0,0,83.2,378.087a222.937,222.937,0,0,0,79.357,62.288H26.691a26.69,26.69,0,1,0,0,53.38H485.309a26.691,26.691,0,0,0,0-53.382ZM133.5,73.522a206.082,206.082,0,0,1,244.885.064c-60.484,32.868-184.4,32.9-244.885-.064Zm311.083,82.314a204.941,204.941,0,0,1,17.6,74.758c-8.629,23.144-42.443,39.379-65.7,47.724-80,28.708-201.12,28.655-280.97,0-23.32-8.369-57.094-24.612-65.7-47.742a205.294,205.294,0,0,1,17.559-74.8C124.258,233.276,387.454,233.445,444.579,155.836ZM114.008,389.411c80.145,34.962,204.053,34.887,284.023-.019a206.182,206.182,0,0,1-93.784,50.98H207.731a207.033,207.033,0,0,1-93.723-50.961Zm371.3,89.344H26.691a11.691,11.691,0,0,1,0-23.382H485.309a11.691,11.691,0,0,1,0,23.382Z" fill="#7a8f81"/>
  </g>
</svg>
