<svg xmlns="http://www.w3.org/2000/svg" width="511.999" height="277.759" viewBox="0 0 511.999 277.759">
  <g id="yoga" transform="translate(0.001 -117.119)">
    <path id="Caminho_4" data-name="Caminho 4" d="M491.2,353.287H475.371l-20.751-9.21a14.025,14.025,0,0,1-7.809-8.974l-2.692-9.391a7.5,7.5,0,1,0-14.419,4.132l2.691,9.391a28.98,28.98,0,0,0,9.022,14.051H424.527L385.6,249.556a10.153,10.153,0,1,1,19.265-6.365l15.183,52.971a7.5,7.5,0,1,0,14.419-4.133l-11.607-40.494c13.665-7.05,21.423-20.985,22.924-35.555a46.555,46.555,0,0,0,22.3-3.684,23.436,23.436,0,1,0,32.549-31.484,46.627,46.627,0,0,0-71.346-54.374l-7.706,5.771a46.576,46.576,0,0,0-18.652,37.2c-8.038.769-35.873-5.031-66.231,15.1l-66.206,43.9c-67.259-16.662-80.823-21.588-108.479-25.777L83.163,190.06,70,184.579c-14.328-5.965-20.975-12.86-36.26-23.523-14.143-10.344-32.6,6.161-23.887,21.447L27.7,213.821A24.281,24.281,0,0,0,49.361,226.1c3.841.157,9.827-1.172,17.819,2.205,1.188.5,21.5,7.145,29.4,9.643a7.5,7.5,0,1,0,4.525-14.3c-5.857-1.854-12.681-4.07-20.709-6.729l5.16-11.288,74.153,11.821c26.649,4.038,39.364,8.7,106.2,25.267l13.148,43.721a46.459,46.459,0,0,1-55.061-13.794,61.605,61.605,0,0,0-28.569-20.021c-37.989-12.8-51.635-16.876-60.723-19.378a7.5,7.5,0,1,0-3.982,14.461c8.228,2.266,21.466,6.208,56.986,18.146L74.748,316.944l-14.071,2.583a86.921,86.921,0,0,1-20.471,1.3l-22.956-1.27c-17.5-.976-24.07,22.963-8.37,31.074l6.558,3.387a20.782,20.782,0,0,0,5.36,40.865H491.2a20.8,20.8,0,0,0,0-41.591ZM49.038,211.109a9.348,9.348,0,0,1-8.311-4.712L22.879,175.079a1.443,1.443,0,0,1,2-1.911c14.774,10.256,22.8,18.374,39.35,25.262l6.825,2.84-5,10.934c-7.736-1.86-12.984-1.033-17.019-1.1Zm228.973,93.557,13.135-7.529,85.313-29.24,32.046,85.39H102.843l115.373-25.5A212.094,212.094,0,0,0,278.011,304.666Zm215.608-97.012a8.383,8.383,0,0,1-12.73-3.362c2.889-2.32,7.217-4.8,12.082-10.582A8.439,8.439,0,0,1,493.619,207.654ZM482.545,144.8a31.659,31.659,0,0,1-6.354,44.268l-7.96,5.95-.014.012a31.414,31.414,0,0,1-12.231,5.447l4.59-22.034a5.468,5.468,0,0,1,2.078-3.266,20.465,20.465,0,0,0,4.115-28.665l-10.74-14.34A31.427,31.427,0,0,1,482.545,144.8Zm-51.974-.583,7.706-5.771c.8-.6,1.626-1.144,2.466-1.659l14.02,18.719a5.474,5.474,0,0,1-1.1,7.667,20.461,20.461,0,0,0-7.771,12.214l-5.107,24.517c-24.947-7.151-31.121-40.028-10.213-55.687Zm-85.586,52.79c26.215-17.383,50.306-11.719,60.376-12.568a46.438,46.438,0,0,0,25.658,27.86c-.349,8.863-4.349,18.929-12.532,24.426a25.15,25.15,0,0,0-47.276,17.113l-78.236,26.814-12.324-40.983ZM204.822,274.58A46.759,46.759,0,0,1,212.264,282a61.783,61.783,0,0,0,33.792,21.525,197.144,197.144,0,0,1-31.077,9.617L87.144,341.4l-1.89-12.739Zm-188.4,59.948L39.377,335.8a101.959,101.959,0,0,0,24.008-1.518l7.339-1.347L72.5,344.941c-7.536,2.662-11.544,6.251-14.884,8.346H46.747L15.765,337.3A1.484,1.484,0,0,1,16.422,334.528ZM491.2,379.878H20.8a5.8,5.8,0,0,1,0-11.591H491.2a5.8,5.8,0,0,1,0,11.591Z" fill="#7a8f81"/>
  </g>
</svg>
